<svg width="54" height="54" viewBox="0 0 54 54" fill="none" xmlns="http://www.w3.org/2000/svg">
<path d="M50 26.875C50 39.6465 39.6465 50 26.875 50V53.75C41.7177 53.75 53.75 41.7177 53.75 26.875H50ZM26.875 50C14.1034 50 3.75 39.6465 3.75 26.875H0C0 41.7177 12.0324 53.75 26.875 53.75V50ZM3.75 26.875C3.75 14.1034 14.1034 3.75 26.875 3.75V0C12.0324 0 0 12.0324 0 26.875H3.75ZM35.625 32.5C27.686 32.5 21.25 26.064 21.25 18.125H17.5C17.5 28.1352 25.6148 36.25 35.625 36.25V32.5ZM47.9383 25.5475C45.418 29.7182 40.8455 32.5 35.625 32.5V36.25C42.2123 36.25 47.9767 32.7348 51.148 27.4868L47.9383 25.5475ZM21.25 18.125C21.25 12.9045 24.0318 8.332 28.2025 5.81168L26.2632 2.60212C21.0152 5.77325 17.5 11.5377 17.5 18.125H21.25ZM26.875 3.75C26.6537 3.75 26.3942 3.6502 26.206 3.4542C26.0465 3.28818 26.0095 3.1311 26.0008 3.06758C25.9903 2.98968 25.9955 2.76392 26.2632 2.60212L28.2025 5.81168C29.4605 5.05163 29.865 3.65995 29.717 2.56567C29.5635 1.42815 28.6665 0 26.875 0V3.75ZM51.148 27.4868C50.986 27.7545 50.7603 27.7597 50.6825 27.7492C50.619 27.7405 50.4617 27.7035 50.2957 27.544C50.0997 27.3558 50 27.0963 50 26.875H53.75C53.75 25.0835 52.3217 24.1865 51.1842 24.033C50.09 23.885 48.6983 24.2895 47.9383 25.5475L51.148 27.4868Z" fill="#FFF500"/>
</svg>
