<svg width="68" height="68" viewBox="0 0 68 68" fill="none" xmlns="http://www.w3.org/2000/svg">
<g clip-path="url(#clip0_1_13)">
<path d="M49.2188 33.5938C49.2188 42.2231 42.2231 49.2188 33.5938 49.2188C24.9643 49.2188 17.9688 42.2231 17.9688 33.5938C17.9688 24.9643 24.9643 17.9688 33.5938 17.9688C42.2231 17.9688 49.2188 24.9643 49.2188 33.5938Z" fill="#DCC600"/>
<path fill-rule="evenodd" clip-rule="evenodd" d="M33.5938 0C34.8881 0 35.9375 1.04934 35.9375 2.34375V8.59375C35.9375 9.88816 34.8881 10.9375 33.5938 10.9375C32.2994 10.9375 31.25 9.88816 31.25 8.59375V2.34375C31.25 1.04934 32.2994 0 33.5938 0ZM7.55828 7.70653C8.43172 6.75122 9.91422 6.68484 10.8695 7.55828L17.8133 13.907C18.7686 14.7804 18.835 16.2629 17.9616 17.2182C17.0881 18.1735 15.6056 18.2399 14.6503 17.3665L7.70653 11.0178C6.75122 10.1443 6.68484 8.66184 7.55828 7.70653ZM59.6294 7.70653C60.5028 8.66184 60.4362 10.1443 59.4809 11.0178L52.5372 17.3665C51.5819 18.2399 50.0994 18.1735 49.2259 17.2182C48.3525 16.2629 48.4187 14.7804 49.3741 13.907L56.3181 7.55828C57.2734 6.68484 58.7556 6.75122 59.6294 7.70653ZM0 33.5938C0 32.2994 1.04934 31.25 2.34375 31.25H8.59375C9.88816 31.25 10.9375 32.2994 10.9375 33.5938C10.9375 34.8881 9.88816 35.9375 8.59375 35.9375H2.34375C1.04934 35.9375 0 34.8881 0 33.5938ZM56.25 33.5938C56.25 32.2994 57.2994 31.25 58.5938 31.25H64.8438C66.1381 31.25 67.1875 32.2994 67.1875 33.5938C67.1875 34.8881 66.1381 35.9375 64.8438 35.9375H58.5938C57.2994 35.9375 56.25 34.8881 56.25 33.5938ZM49.2984 49.2975C50.2137 48.3822 51.6978 48.3822 52.6131 49.2975L59.5569 56.2422C60.4722 57.1575 60.4719 58.6416 59.5566 59.5569C58.6412 60.4722 57.1572 60.4719 56.2422 59.5566L49.2984 52.6119C48.3831 51.6966 48.3831 50.2128 49.2984 49.2975ZM17.8896 49.2978C18.8049 50.2131 18.8049 51.6972 17.8896 52.6125L10.9451 59.5569C10.0298 60.4722 8.54588 60.4722 7.63056 59.5569C6.71528 58.6416 6.71528 57.1575 7.63056 56.2425L14.575 49.2978C15.4903 48.3825 16.9743 48.3825 17.8896 49.2978ZM33.5938 56.25C34.8881 56.25 35.9375 57.2994 35.9375 58.5938V64.8438C35.9375 66.1381 34.8881 67.1875 33.5938 67.1875C32.2994 67.1875 31.25 66.1381 31.25 64.8438V58.5938C31.25 57.2994 32.2994 56.25 33.5938 56.25Z" fill="#DCC600"/>
</g>
<defs>
<clipPath id="clip0_1_13">
<rect width="67.8" height="67.8" fill="white"/>
</clipPath>
</defs>
</svg>
