<svg width="60" height="53" viewBox="0 0 60 53" fill="none" xmlns="http://www.w3.org/2000/svg">
<path d="M44.6097 10.2023C44.2953 10.2023 43.9805 10.2118 43.6659 10.2308C41.085 4.13332 34.8924 0 28.063 0C18.7533 0 11.1793 7.42406 11.1793 16.5493C11.1793 16.5812 11.1793 16.6134 11.1796 16.6455C4.93532 17.1153 0 22.2514 0 28.4972C0 35.0512 5.43407 40.3831 12.1136 40.3831H44.6099C53.096 40.3831 60.0003 33.6138 60.0003 25.2928C60.0003 16.9719 53.096 10.2023 44.6097 10.2023ZM44.6097 36.431H12.1136C7.61323 36.431 3.95205 32.8718 3.95205 28.4972C3.95205 24.1223 7.61323 20.5628 12.1136 20.5628C12.3913 20.5628 12.7 20.5836 13.085 20.6286C13.6954 20.7008 14.3033 20.4835 14.7311 20.0432C15.1593 19.6027 15.3579 18.9883 15.2694 18.3807C15.178 17.7537 15.1316 17.1374 15.1316 16.5493C15.1316 9.60322 20.9327 3.95205 28.0632 3.95205C33.7384 3.95205 38.8336 7.64985 40.4534 12.9448C40.7438 13.8933 41.6925 14.4811 42.6697 14.3154C43.3073 14.2087 43.96 14.1544 44.6097 14.1544C50.9166 14.1544 56.048 19.1511 56.048 25.2926C56.048 31.4343 50.9169 36.431 44.6097 36.431Z" fill="#9F9F9F"/>
<path d="M12.528 43.3824L6.86708 49.0433C6.09537 49.8153 6.09537 51.0663 6.86708 51.838C7.2528 52.2237 7.75866 52.4165 8.26426 52.4165C8.76986 52.4165 9.27572 52.2237 9.66144 51.838L15.3224 46.1771C16.0941 45.4051 16.0941 44.1541 15.3224 43.3824C14.5509 42.611 13.2997 42.611 12.528 43.3824Z" fill="#9F9F9F"/>
<path d="M24.6044 43.3827L18.944 49.0436C18.1723 49.8153 18.1726 51.0665 18.9443 51.838C19.3303 52.2237 19.8359 52.4166 20.3415 52.4166C20.8471 52.4166 21.3529 52.2237 21.7389 51.8377L27.3993 46.1768C28.171 45.4051 28.1707 44.1539 27.399 43.3824C26.6271 42.611 25.3758 42.6107 24.6044 43.3827Z" fill="#9F9F9F"/>
<path d="M36.6808 43.3827L31.0204 49.0436C30.2487 49.8153 30.249 51.0665 31.0207 51.838C31.4067 52.2237 31.9123 52.4166 32.4179 52.4166C32.9235 52.4166 33.4293 52.2237 33.8153 51.8377L39.4757 46.1768C40.2474 45.4051 40.2471 44.1539 39.4754 43.3824C38.7035 42.611 37.4522 42.6107 36.6808 43.3827Z" fill="#9F9F9F"/>
<path d="M48.7577 43.3824L43.0968 49.0433C42.3251 49.8153 42.3251 51.0663 43.0968 51.838C43.4825 52.2237 43.9884 52.4165 44.494 52.4165C44.9996 52.4165 45.5055 52.2237 45.8912 51.838L51.5521 46.1771C52.3238 45.4051 52.3238 44.1541 51.5521 43.3824C50.7807 42.611 49.5294 42.611 48.7577 43.3824Z" fill="#9F9F9F"/>
</svg>
