<svg width="88" height="88" viewBox="0 0 88 88" fill="none" xmlns="http://www.w3.org/2000/svg">
<g id="SearchFrame">
<path id="searchIcon" d="M34.1033 8.49143e-05C52.3859 8.49143e-05 67.2068 14.821 67.2068 33.1034C67.2068 51.3858 52.3859 66.2069 34.1035 66.2069C15.8208 66.2069 1 51.3859 1 33.1036C1.02175 14.8298 15.8297 0.02175 34.1014 0L34.1033 8.49143e-05ZM34.1033 58.5441C48.1539 58.5441 59.544 47.154 59.544 33.1034C59.544 19.0528 48.1539 7.66297 34.1033 7.66297C20.0529 7.66297 8.6628 19.0531 8.6628 33.1037C8.68021 47.147 20.06 58.5268 34.1018 58.5442L34.1033 58.5441ZM82.571 87.0001L51.5096 55.9273L56.9272 50.5097L88 81.571L82.571 87.0001Z" fill="white"/>
</g>
</svg>
