<svg width="56" height="57" viewBox="0 0 56 57" fill="none" xmlns="http://www.w3.org/2000/svg">
<path d="M21.7459 36.9944H21.7771M40.4978 36.9944H40.5291M31.1219 42.6629H31.1531M21.7459 48.3315H21.7771M40.4978 48.3315H40.5291M31.1219 54H31.1531M15.4952 14.4563C17.8339 14.8606 20.0004 16.1738 21.6677 18.1975M9.24457 39.4961C6.78888 38.0854 4.85567 35.6195 3.82179 32.579C2.78792 29.5386 2.72748 26.1416 3.65227 23.0502C4.57706 19.9588 6.42078 17.3947 8.82403 15.8575C11.2273 14.3204 14.0178 13.9206 16.6516 14.7359C17.9835 10.8055 20.3713 7.53201 23.43 5.44333C26.4888 3.35465 30.0402 2.57251 33.5115 3.22304C36.9829 3.87357 40.1719 5.91884 42.5643 9.02906C44.9567 12.1393 46.413 16.1332 46.6985 20.3667C47.9918 20.8001 49.1832 21.5935 50.1774 22.6835C51.1716 23.7734 51.9409 25.1297 52.4239 26.6437C52.9069 28.1577 53.0901 29.7873 52.9588 31.4023C52.8274 33.0172 52.3853 34.5725 51.6678 35.9438" stroke="#56C1E2" stroke-width="5" stroke-linecap="round" stroke-linejoin="round"/>
</svg>
