<svg width="54" height="54" viewBox="0 0 54 54" fill="none" xmlns="http://www.w3.org/2000/svg">
<g id="clouds" clip-path="url(#clip0_1_20)">
<path id="up" d="M52 27.8822C52 21.7028 47.9825 16.4506 42.3877 14.5374M42.3877 14.5374C40.9232 14.0367 39.351 13.7647 37.7142 13.7647C36.0445 13.7647 34.4417 14.0478 32.9525 14.568M42.3877 14.5374C41.5927 7.48427 35.5397 2 28.1905 2C20.3007 2 13.9047 8.32068 13.9047 16.1176C13.9047 17.8422 14.2176 19.4945 14.7904 21.0222M12.7143 42C6.79695 42 2 37.2595 2 31.4117C2 25.564 6.79695 20.8235 12.7143 20.8235C13.4246 20.8235 14.1187 20.8918 14.7904 21.0222M14.7904 21.0222C16.2015 21.296 17.5132 21.8435 18.6667 22.6065" stroke="#C5C5C5" stroke-width="3.75" stroke-linecap="round"/>
<path id="bottom" d="M39.619 34.855C40.5872 34.5298 41.629 34.353 42.7142 34.353C43.7782 34.353 44.8002 34.523 45.752 34.836M45.752 34.836C49.3885 36.0315 52 39.3143 52 43.1765C52 48.0495 47.8427 52 42.7142 52H26.4642C22.618 52 19.5 49.0372 19.5 45.3822C19.5 41.7275 22.618 38.7648 26.4642 38.7648C26.926 38.7648 27.3772 38.8075 27.8137 38.8888M45.752 34.836C45.2352 30.4278 41.3007 27 36.5237 27C31.3955 27 27.238 30.9505 27.238 35.8235C27.238 36.9012 27.4415 37.934 27.8137 38.8888M27.8137 38.8888C28.731 39.06 29.5835 39.4022 30.3332 39.879" stroke="#C5C5C5" stroke-width="3.75" stroke-linecap="round"/>
</g>
<defs>
<clipPath id="clip0_1_20">
<rect width="54" height="54" fill="white"/>
</clipPath>
</defs>
</svg>
