<svg width="60" height="60" viewBox="0 0 60 60" fill="none" xmlns="http://www.w3.org/2000/svg">
<g clip-path="url(#clip0_1_22)">
<path fill-rule="evenodd" clip-rule="evenodd" d="M41.25 41.25H15C15 41.25 3.67875 40.0894 3.75 30C3.78937 24.3075 9.02437 19.2188 15 18.75C15 10.9837 19.9706 3.75 28.125 3.75C34.5619 3.75 38.8556 7.67996 40.3856 13.1512C49.6744 12.7462 55.9575 20.0962 56.25 26.25C56.6437 34.5244 48.0019 41.25 41.25 41.25ZM43.2506 9.42753C40.4981 3.8494 34.7681 0 28.125 0C19.2188 0 11.9438 6.90369 11.3119 15.6468C4.76626 17.5124 0 23.2313 0 30C0 37.9875 6.6375 44.4956 15 44.9569C15 44.9569 40.9331 45 41.25 45C51.0881 45 60 37.0256 60 27.1875C60 17.7094 52.59 9.98065 43.2506 9.42753ZM46.875 50.625C45.84 50.625 45 51.4631 45 52.5V58.125C45 59.1619 45.84 60 46.875 60C47.91 60 48.75 59.1619 48.75 58.125V52.5C48.75 51.4631 47.91 50.625 46.875 50.625ZM35.625 50.625C34.59 50.625 33.75 51.4631 33.75 52.5V58.125C33.75 59.1619 34.59 60 35.625 60C36.66 60 37.5 59.1619 37.5 58.125V52.5C37.5 51.4631 36.66 50.625 35.625 50.625ZM13.125 50.625C12.09 50.625 11.25 51.4631 11.25 52.5V58.125C11.25 59.1619 12.09 60 13.125 60C14.16 60 15 59.1619 15 58.125V52.5C15 51.4631 14.16 50.625 13.125 50.625ZM24.375 50.625C23.34 50.625 22.5 51.4631 22.5 52.5V58.125C22.5 59.1619 23.34 60 24.375 60C25.41 60 26.25 59.1619 26.25 58.125V52.5C26.25 51.4631 25.41 50.625 24.375 50.625Z" fill="#3265C7"/>
</g>
<defs>
<clipPath id="clip0_1_22">
<rect width="60" height="60" fill="white"/>
</clipPath>
</defs>
</svg>
